<?xml version="1.0" standalone="no"?><!DOCTYPE svg PUBLIC "-//W3C//DTD SVG 1.1//EN" "http://www.w3.org/Graphics/SVG/1.1/DTD/svg11.dtd"><svg t="1667200682619" class="icon" viewBox="0 0 1149 1024" version="1.1" xmlns="http://www.w3.org/2000/svg" p-id="2261" xmlns:xlink="http://www.w3.org/1999/xlink" width="224.4140625" height="200"><path d="M1091.43 364.61H668.7v-70.15h0.03v-90.02c0-24.39-19.84-44.24-44.24-44.24H437.78l-6.43 0.77c-4.18 1.01-104 26.71-253.23 203.45l0.23 0.2H156.66C70.28 364.62 0 434.9 0 521.28v181.18c0 32.3 26.28 58.57 58.56 58.57h68.99c16.53 59.33 70.91 103.03 135.43 103.03 64.53 0 118.91-43.71 135.44-103.03h306.15c16.53 59.33 70.91 103.03 135.43 103.03S958.9 820.35 975.43 761.03h115.78c32.41 0 58.78-26.36 58.78-58.78V423.17c0.01-32.28-26.27-58.56-58.56-58.56z m0 54.82c2.07 0 3.75 1.68 3.75 3.75V440c-1.26-0.08-2.46-0.38-3.75-0.38H759v-0.06h-86.55a3.76 3.76 0 0 1-3.75-3.76v-16.37h422.73zM318.77 297.2h126.32v67.41H251c24.55-26.85 47.24-49.13 67.77-67.41z m-55.78 512.04c-47.36 0-85.89-38.53-85.89-85.9 0-47.36 38.53-85.89 85.89-85.89 47.37 0 85.9 38.53 85.9 85.89 0 47.37-38.54 85.9-85.9 85.9z m577.02 0c-47.36 0-85.89-38.53-85.89-85.9 0-47.36 38.53-85.89 85.89-85.89S925.9 675.98 925.9 723.34c0 47.37-38.53 85.9-85.89 85.9z m255.17-106.99c0 2.11-1.85 3.96-3.96 3.96H979.57c-8.49-69.52-67.78-123.58-139.56-123.58-66.23 0-121.77 46.05-136.66 107.78h-303.7c-14.88-61.72-70.43-107.78-136.67-107.78-71.78 0-131.07 54.06-139.56 123.58H58.56a3.76 3.76 0 0 1-3.75-3.76V521.27c0-56.16 45.69-101.85 101.85-101.85h343.32V364.6H499.9v-77.98c0-24.39-19.84-44.24-44.24-44.24h-66.04c27.81-17.98 46.03-25.24 52.22-27.37h172.07v39.61h-0.03V435.8c0 32.3 26.28 58.57 58.56 58.57h24.3v0.06h394.69a3.76 3.76 0 0 1 3.75 3.76v204.06z" fill="#666666" p-id="2262"></path></svg>